<?xml version="1.0" encoding="UTF-8" standalone="no"?>
<svg
   id="Layer_1"
   version="1.1"
   viewBox="0 0 841.20001 227.2"
   sodipodi:docname="prysm_logo.svg"
   width="841.20001"
   height="227.2"
   inkscape:version="1.4.3 (fcd0343856, 2026-01-01)"
   xmlns:inkscape="http://www.inkscape.org/namespaces/inkscape"
   xmlns:sodipodi="http://sodipodi.sourceforge.net/DTD/sodipodi-0.dtd"
   xmlns="http://www.w3.org/2000/svg"
   xmlns:svg="http://www.w3.org/2000/svg">
  <sodipodi:namedview
     id="namedview23"
     pagecolor="#ffffff"
     bordercolor="#000000"
     borderopacity="0.25"
     inkscape:showpageshadow="2"
     inkscape:pageopacity="0.0"
     inkscape:pagecheckerboard="0"
     inkscape:deskcolor="#d1d1d1"
     inkscape:zoom="0.74351852"
     inkscape:cx="419.6264"
     inkscape:cy="125.75342"
     inkscape:window-width="1854"
     inkscape:window-height="1011"
     inkscape:window-x="0"
     inkscape:window-y="0"
     inkscape:window-maximized="1"
     inkscape:current-layer="Layer_1" />
  <!-- Generator: Adobe Illustrator 30.1.0, SVG Export Plug-In . SVG Version: 2.1.1 Build 136)  -->
  <defs
     id="defs1">
    <style
       id="style1">
      .st0 {
        fill: #FFFFFF;
      }
    </style>
  </defs>
  <g
     id="g11"
     transform="translate(-119.5,-414.8)">
    <polygon
       class="st0"
       points="207,625.9 244.4,625.9 245.9,621.8 202.9,621.8 "
       id="polygon1" />
    <polygon
       class="st0"
       points="223.1,642 238.5,642 240,637.9 219,637.9 "
       id="polygon2" />
    <path
       class="st0"
       d="M 255.1,539.6 H 120.7 l 5.6,5.6 h 140.3 c -2.6,-3.4 -6.7,-5.6 -11.5,-5.6 z"
       id="path2" />
    <polygon
       class="st0"
       points="190.9,609.8 250.3,609.8 251.8,605.6 186.7,605.6 "
       id="polygon3" />
    <polygon
       class="st0"
       points="158.6,577.5 262.2,577.5 263.7,573.4 154.5,573.4 "
       id="polygon4" />
    <path
       class="st0"
       d="m 268.8,559.3 c 0.2,-0.7 0.4,-1.3 0.6,-2 h -131 l 4.1,4.1 h 125.6 l 0.8,-2.1 z"
       id="path4" />
    <polygon
       class="st0"
       points="174.7,593.6 256.2,593.6 257.7,589.5 170.6,589.5 "
       id="polygon5" />
    <path
       class="st0"
       d="m 279.7,557.7 -1.3,3.6 h 58.7 l 4.1,-4.1 h -61.3 c 0,0.2 -0.2,0.3 -0.2,0.5 z"
       id="path5" />
    <polygon
       class="st0"
       points="308.8,589.5 268,589.5 266.5,593.6 304.6,593.6 "
       id="polygon6" />
    <polygon
       class="st0"
       points="292.5,605.6 262.1,605.6 260.6,609.8 288.4,609.8 "
       id="polygon7" />
    <polygon
       class="st0"
       points="276.3,621.8 256.2,621.8 254.7,625.9 272.2,625.9 "
       id="polygon8" />
    <polygon
       class="st0"
       points="325,573.4 274,573.4 272.4,577.5 320.8,577.5 "
       id="polygon9" />
    <path
       class="st0"
       d="m 359,539.6 h -53.3 c -6.2,0 -11.9,2.1 -16.6,5.6 h 64.3 l 5.7,-5.6 z"
       id="path9" />
    <polygon
       class="st0"
       points="260.1,637.9 250.3,637.9 248.8,642 256,642 "
       id="polygon10" />
    <path
       class="st0"
       d="M 233.2,414.8 119.5,528.5 h 134.4 c 10.2,0 17.2,-10.1 13.7,-19.6 l -34.5,-94 z"
       id="path10" />
    <path
       class="st0"
       d="m 359,528.4 h -54.9 c -10.6,0 -20.1,-6.6 -23.8,-16.6 l -35.6,-97 114.3,113.7 z"
       id="path11" />
  </g>
  <path
     class="st0"
     d="m 367.7,82.2 c -2.4,4.9 -5.6,9.1 -9.8,12.4 -4.1,3.3 -9,5.8 -14.5,7.5 -5.5,1.7 -11.5,2.5 -17.8,2.5 h -18.9 v 33.9 H 281.9 V 25.6 H 328 c 6.8,0 12.8,0.9 18.1,2.8 5.3,1.9 9.8,4.5 13.5,8 3.7,3.4 6.6,7.6 8.5,12.3 2,4.8 3,10.1 3,15.9 v 0.3 c 0,6.6 -1.2,12.3 -3.5,17.3 z M 346.1,65.1 c 0,-5.6 -1.8,-9.8 -5.4,-12.7 -3.6,-2.9 -8.5,-4.4 -14.8,-4.4 h -19.2 v 34.5 h 19.7 c 6.2,0 11.1,-1.6 14.5,-4.9 3.4,-3.3 5.2,-7.3 5.2,-12.2 z"
     id="path12" />
  <path
     class="st0"
     d="m 458.9,138.5 -24.2,-36.1 h -19.5 v 36.1 H 390.4 V 25.6 H 442 c 13.4,0 23.9,3.3 31.4,9.8 7.5,6.6 11.2,15.7 11.2,27.4 v 0.3 c 0,9.1 -2.2,16.6 -6.7,22.3 -4.5,5.8 -10.3,10 -17.5,12.7 l 27.6,40.3 h -29 z m 0.5,-74.4 c 0,-5.4 -1.7,-9.4 -5.2,-12.1 -3.4,-2.7 -8.2,-4 -14.4,-4 h -24.7 v 32.4 h 25.2 c 6.1,0 10.8,-1.5 14.1,-4.4 3.3,-2.9 4.9,-6.8 4.9,-11.6 v -0.3 z"
     id="path13" />
  <path
     class="st0"
     d="m 564.4,93.5 v 45 H 539.6 V 94 L 496.2,25.6 h 29 l 26.9,45.3 27.4,-45.3 h 28.2 l -43.4,67.9 z"
     id="path14" />
  <path
     class="st0"
     d="m 702.6,120 c -2,4.4 -4.9,8 -8.5,11 -3.6,3 -8,5.2 -13,6.8 -5,1.6 -10.6,2.3 -16.7,2.3 -6.1,0 -17,-1.5 -25.3,-4.4 -8.3,-3 -15.8,-7.5 -22.6,-13.6 l 14.7,-17.6 c 5.2,4.2 10.5,7.5 15.9,10 5.4,2.5 11.4,3.7 17.8,3.7 6.4,0 9.2,-0.9 12,-2.8 2.8,-1.9 4.3,-4.5 4.3,-7.8 v -0.3 c 0,-1.6 -0.3,-3 -0.9,-4.3 -0.6,-1.2 -1.7,-2.4 -3.4,-3.5 -1.7,-1.1 -4,-2.1 -7,-3.2 -3,-1.1 -6.8,-2.2 -11.6,-3.4 -5.7,-1.4 -10.9,-3 -15.5,-4.7 -4.6,-1.7 -8.6,-3.8 -11.8,-6.4 -3.2,-2.5 -5.7,-5.7 -7.5,-9.4 -1.8,-3.8 -2.7,-8.4 -2.7,-14 v -0.3 c 0,-5.2 1,-9.8 2.9,-13.9 1.9,-4.1 4.6,-7.7 8.1,-10.7 3.5,-3 7.6,-5.3 12.4,-6.9 4.8,-1.6 10.1,-2.4 15.9,-2.4 8.3,0 15.9,1.2 22.8,3.7 6.9,2.5 13.3,6 19.1,10.6 l -12.9,18.7 c -5.1,-3.4 -10,-6.2 -14.8,-8.1 -4.8,-2 -9.7,-3 -14.5,-3 -4.8,0 -8.5,0.9 -10.9,2.8 -2.4,1.9 -3.6,4.2 -3.6,7 v 0.3 c 0,1.8 0.4,3.4 1.1,4.8 0.7,1.3 2,2.6 3.8,3.6 1.8,1.1 4.3,2.1 7.5,3.1 3.2,1 7.2,2.1 12,3.4 5.7,1.5 10.8,3.2 15.3,5.1 4.5,1.9 8.2,4.1 11.3,6.8 3.1,2.6 5.4,5.7 7,9.3 1.6,3.5 2.3,7.8 2.3,12.7 v 0.3 c 0,5.6 -1,10.6 -3,14.9 z"
     id="path15" />
  <path
     class="st0"
     d="M 816.5,138.5 V 64.8 L 784.7,113 h -0.6 L 752.7,65.3 v 73.2 H 728.2 V 25.6 H 755 l 29.7,47.7 29.7,-47.7 h 26.8 v 112.9 h -24.5 z"
     id="path16" />
  <g
     id="g23"
     transform="translate(-119.5,-414.8)">
    <path
       class="st0"
       d="m 414.8,587.3 v 8.5 h 18.8 v 7.8 h -18.8 v 15.2 h -8.7 v -39.4 h 30 v 7.8 h -21.3 z"
       id="path17" />
    <path
       class="st0"
       d="m 463.1,618.9 v -39.4 h 8.7 v 39.4 z"
       id="path18" />
    <path
       class="st0"
       d="m 501.3,618.9 v -39.4 h 8.7 v 31.6 h 19.6 v 7.8 z"
       id="path19" />
    <path
       class="st0"
       d="m 573.6,587.5 v 31.4 h -8.7 v -31.4 h -12 v -8 h 32.6 v 8 h -12 z"
       id="path20" />
    <path
       class="st0"
       d="m 611.9,618.9 v -39.4 h 29.6 v 7.7 h -21.1 v 8 H 639 v 7.7 h -18.6 v 8.3 h 21.4 v 7.7 z"
       id="path21" />
    <path
       class="st0"
       d="m 693.2,618.9 -8.4,-12.6 H 678 v 12.6 h -8.7 v -39.4 h 18 c 4.7,0 8.3,1.1 10.9,3.4 2.6,2.3 3.9,5.5 3.9,9.6 v 0 c 0,3.3 -0.8,5.9 -2.3,7.9 -1.6,2 -3.6,3.5 -6.1,4.4 l 9.6,14.1 z m 0.1,-25.9 c 0,-1.9 -0.6,-3.3 -1.8,-4.2 -1.2,-0.9 -2.9,-1.4 -5,-1.4 h -8.6 v 11.3 h 8.8 c 2.1,0 3.8,-0.5 4.9,-1.5 1.1,-1 1.7,-2.4 1.7,-4 v 0 z"
       id="path22" />
    <path
       class="st0"
       d="m 757,612.4 c -0.7,1.5 -1.7,2.8 -3,3.8 -1.3,1 -2.8,1.8 -4.5,2.4 -1.8,0.5 -3.7,0.8 -5.8,0.8 -2.1,0 -5.9,-0.5 -8.8,-1.5 -2.9,-1 -5.5,-2.6 -7.9,-4.8 l 5.1,-6.1 c 1.8,1.5 3.6,2.6 5.5,3.5 1.9,0.9 4,1.3 6.2,1.3 2.2,0 3.2,-0.3 4.2,-1 1,-0.7 1.5,-1.6 1.5,-2.7 v 0 c 0,-0.7 -0.1,-1.2 -0.3,-1.6 -0.2,-0.4 -0.6,-0.8 -1.2,-1.2 -0.6,-0.4 -1.4,-0.8 -2.4,-1.1 -1,-0.4 -2.4,-0.8 -4,-1.2 -2,-0.5 -3.8,-1 -5.4,-1.6 -1.6,-0.6 -3,-1.3 -4.1,-2.2 -1.1,-0.9 -2,-2 -2.6,-3.3 -0.6,-1.3 -0.9,-2.9 -0.9,-4.9 v 0 c 0,-1.9 0.3,-3.5 1,-5 0.7,-1.4 1.6,-2.7 2.8,-3.7 1.2,-1 2.7,-1.9 4.3,-2.4 1.7,-0.6 3.5,-0.8 5.6,-0.8 2.9,0 5.5,0.4 8,1.3 2.4,0.9 4.6,2.1 6.7,3.7 l -4.5,6.5 c -1.8,-1.2 -3.5,-2.1 -5.2,-2.8 -1.7,-0.7 -3.4,-1 -5.1,-1 -1.7,0 -3,0.3 -3.8,1 -0.8,0.7 -1.3,1.5 -1.3,2.4 v 0 c 0,0.8 0.1,1.3 0.4,1.8 0.2,0.5 0.7,0.9 1.3,1.3 0.6,0.4 1.5,0.7 2.6,1.1 1.1,0.3 2.5,0.7 4.2,1.2 2,0.5 3.8,1.1 5.3,1.8 1.6,0.7 2.9,1.4 3.9,2.4 1.1,0.9 1.9,2 2.4,3.2 0.5,1.2 0.8,2.7 0.8,4.4 v 0 c 0,2.1 -0.4,3.8 -1.1,5.3 z"
       id="path23" />
  </g>
</svg>
